<svg xmlns:mydata="http://www.w3.org/2000/svg" mydata:companyname="la vie en noir" mydata:companytagline="From frontend finesse to backend brilliance" version="1.1" xmlns="http://www.w3.org/2000/svg" xmlns:xlink="http://www.w3.org/1999/xlink" viewBox="197 114 157 150" style="" width="64" height="64"><g fill="#b2b4b2" fill-rule="none" stroke="none" stroke-width="1" stroke-linecap="butt" stroke-linejoin="miter" stroke-miterlimit="10" stroke-dasharray="" stroke-dashoffset="0" font-family="none" font-weight="none" font-size="none" text-anchor="none" style="mix-blend-mode: normal"><g><g fill-rule="evenodd"><path d="M352.72739,231.59109c-10.73197,0 -19.43185,-8.69988 -19.43185,-19.43185v-14.57389c0,-18.78088 -15.22485,-34.00573 -34.00573,-34.00573c-18.78088,0 -34.00573,15.22485 -34.00573,34.00573v19.43185c0,8.04891 -6.52497,14.57389 -14.57389,14.57389c-8.04891,0 -14.57389,-6.52497 -14.57389,-14.57389v-63.1535c0,-21.46393 -17.39976,-38.86369 -38.86369,-38.86369v19.43185c10.73197,0 19.43185,8.69988 19.43185,19.43185v63.1535c0,18.78088 15.22485,34.00573 34.00573,34.00573c18.78088,0 34.00573,-15.22485 34.00573,-34.00573v-19.43185c0,-8.04891 6.52497,-14.57389 14.57389,-14.57389c8.04891,0 14.57389,6.52497 14.57389,14.57389v14.57389c0,21.46393 17.39977,38.86369 38.86369,38.86369zM313.86369,129.57389c0,0.23853 -0.00583,0.47689 -0.01749,0.71509c-0.01182,0.2382 -0.02939,0.476 -0.05271,0.71339c-0.02332,0.23739 -0.05247,0.47406 -0.08744,0.70999c-0.03514,0.23593 -0.07595,0.47082 -0.12242,0.70465c-0.04647,0.23399 -0.0987,0.46669 -0.15667,0.69809c-0.05797,0.2314 -0.12161,0.46118 -0.19092,0.68935c-0.06915,0.22832 -0.14387,0.45471 -0.2242,0.67914c-0.08048,0.2246 -0.16631,0.4471 -0.25747,0.66748c-0.09133,0.22039 -0.188,0.43835 -0.29002,0.65388c-0.10185,0.21569 -0.20906,0.42871 -0.3216,0.63907c-0.11238,0.21035 -0.22986,0.41778 -0.35245,0.62231c-0.12275,0.20468 -0.25034,0.40613 -0.38281,0.60433c-0.13246,0.19837 -0.26978,0.39333 -0.41196,0.5849c-0.14202,0.19157 -0.28864,0.37957 -0.43989,0.56401c-0.15141,0.18428 -0.30719,0.36484 -0.46734,0.54167c-0.16015,0.17667 -0.32459,0.34929 -0.49333,0.51786c-0.16857,0.16873 -0.34119,0.33318 -0.51786,0.49333c-0.17683,0.16015 -0.35738,0.31593 -0.54167,0.46734c-0.18444,0.15124 -0.37245,0.29787 -0.56401,0.43989c-0.19157,0.14218 -0.38653,0.27949 -0.5849,0.41196c-0.1982,0.13263 -0.39965,0.26022 -0.60433,0.38281c-0.20452,0.12258 -0.41196,0.24006 -0.62231,0.35245c-0.21035,0.11254 -0.42337,0.21974 -0.63907,0.3216c-0.21553,0.10202 -0.43349,0.19869 -0.65388,0.29002c-0.22039,0.09117 -0.44288,0.17699 -0.66748,0.25747c-0.22444,0.08032 -0.45082,0.15505 -0.67914,0.2242c-0.22816,0.06931 -0.45795,0.13294 -0.68935,0.19091c-0.2314,0.05797 -0.46409,0.11019 -0.69809,0.15667c-0.23383,0.04647 -0.46871,0.08728 -0.70465,0.12242c-0.23593,0.03498 -0.4726,0.06413 -0.70999,0.08744c-0.23739,0.02332 -0.47519,0.04088 -0.71339,0.05271c-0.2382,0.01166 -0.47656,0.01749 -0.71509,0.01749c-0.23852,0 -0.47689,-0.00583 -0.71509,-0.01749c-0.2382,-0.01182 -0.476,-0.02939 -0.71339,-0.05271c-0.23739,-0.02332 -0.47406,-0.05247 -0.70999,-0.08744c-0.23593,-0.03514 -0.47082,-0.07595 -0.70465,-0.12242c-0.23399,-0.04647 -0.46669,-0.0987 -0.69809,-0.15667c-0.2314,-0.05797 -0.46118,-0.12161 -0.68935,-0.19091c-0.22832,-0.06915 -0.45471,-0.14387 -0.67914,-0.2242c-0.2246,-0.08048 -0.4471,-0.16631 -0.66748,-0.25747c-0.22039,-0.09133 -0.43835,-0.18801 -0.65388,-0.29002c-0.21569,-0.10185 -0.42871,-0.20906 -0.63907,-0.3216c-0.21035,-0.11238 -0.41778,-0.22986 -0.6223,-0.35245c-0.20468,-0.12258 -0.40613,-0.25018 -0.60433,-0.38281c-0.19837,-0.13246 -0.39333,-0.26978 -0.5849,-0.41196c-0.19157,-0.14202 -0.37957,-0.28864 -0.56401,-0.43989c-0.18428,-0.15141 -0.36484,-0.30719 -0.54167,-0.46734c-0.17667,-0.16015 -0.34928,-0.32459 -0.51786,-0.49333c-0.16873,-0.16858 -0.33318,-0.34119 -0.49333,-0.51786c-0.16015,-0.17683 -0.31593,-0.35738 -0.46734,-0.54167c-0.15124,-0.18444 -0.29787,-0.37245 -0.43989,-0.56401c-0.14218,-0.19157 -0.27949,-0.38653 -0.41196,-0.5849c-0.13262,-0.1982 -0.26022,-0.39965 -0.38281,-0.60433c-0.12258,-0.20452 -0.24006,-0.41196 -0.35245,-0.62231c-0.11254,-0.21035 -0.21974,-0.42337 -0.3216,-0.63907c-0.10202,-0.21553 -0.19869,-0.43349 -0.29002,-0.65388c-0.09117,-0.22039 -0.17699,-0.44288 -0.25747,-0.66748c-0.08032,-0.22444 -0.15505,-0.45082 -0.2242,-0.67914c-0.06931,-0.22816 -0.13294,-0.45795 -0.19092,-0.68935c-0.05797,-0.2314 -0.11019,-0.46409 -0.15667,-0.69809c-0.04647,-0.23383 -0.08728,-0.46871 -0.12242,-0.70465c-0.03498,-0.23593 -0.06413,-0.4726 -0.08744,-0.70999c-0.02332,-0.23739 -0.04088,-0.47519 -0.05271,-0.71339c-0.01166,-0.2382 -0.01749,-0.47656 -0.01749,-0.71509c0,-0.23853 0.00583,-0.47689 0.01749,-0.71509c0.01182,-0.2382 0.02939,-0.476 0.05271,-0.71339c0.02332,-0.23739 0.05247,-0.47406 0.08744,-0.70999c0.03514,-0.23593 0.07595,-0.47082 0.12242,-0.70465c0.04647,-0.23399 0.0987,-0.46669 0.15667,-0.69809c0.05797,-0.2314 0.12161,-0.46118 0.19092,-0.68935c0.06915,-0.22832 0.14387,-0.45471 0.2242,-0.67914c0.08048,-0.2246 0.16631,-0.4471 0.25747,-0.66748c0.09133,-0.22039 0.18801,-0.43835 0.29002,-0.65388c0.10185,-0.21569 0.20906,-0.42871 0.3216,-0.63907c0.11238,-0.21035 0.22986,-0.41778 0.35245,-0.62231c0.12258,-0.20468 0.25018,-0.40613 0.38281,-0.60433c0.13246,-0.19837 0.26978,-0.39333 0.41196,-0.5849c0.14202,-0.19157 0.28864,-0.37957 0.43989,-0.56401c0.15141,-0.18428 0.30719,-0.36484 0.46734,-0.54167c0.16015,-0.17667 0.32459,-0.34929 0.49333,-0.51786c0.16857,-0.16873 0.34119,-0.33318 0.51786,-0.49333c0.17683,-0.16015 0.35738,-0.31593 0.54167,-0.46734c0.18444,-0.15124 0.37245,-0.29787 0.56401,-0.43989c0.19157,-0.14218 0.38653,-0.27949 0.5849,-0.41196c0.1982,-0.13262 0.39965,-0.26022 0.60433,-0.38281c0.20452,-0.12258 0.41196,-0.24006 0.6223,-0.35245c0.21035,-0.11254 0.42337,-0.21974 0.63907,-0.3216c0.21553,-0.10202 0.43349,-0.19869 0.65388,-0.29002c0.22039,-0.09117 0.44288,-0.17699 0.66748,-0.25747c0.22444,-0.08032 0.45082,-0.15505 0.67914,-0.2242c0.22816,-0.06931 0.45795,-0.13294 0.68935,-0.19092c0.2314,-0.05797 0.46409,-0.11019 0.69809,-0.15667c0.23383,-0.04647 0.46871,-0.08728 0.70465,-0.12242c0.23593,-0.03498 0.4726,-0.06413 0.70999,-0.08744c0.23739,-0.02332 0.47519,-0.04088 0.71339,-0.05271c0.2382,-0.01166 0.47657,-0.01749 0.71509,-0.01749c0.23852,0 0.47689,0.00583 0.71509,0.01749c0.2382,0.01182 0.476,0.02939 0.71339,0.05271c0.23739,0.02332 0.47406,0.05247 0.70999,0.08744c0.23593,0.03514 0.47082,0.07595 0.70465,0.12242c0.23399,0.04647 0.46669,0.0987 0.69809,0.15667c0.2314,0.05797 0.46118,0.12161 0.68935,0.19092c0.22832,0.06915 0.45471,0.14387 0.67914,0.2242c0.2246,0.08048 0.4471,0.16631 0.66748,0.25747c0.22039,0.09133 0.43835,0.188 0.65388,0.29002c0.21569,0.10185 0.42871,0.20906 0.63907,0.3216c0.21035,0.11238 0.41778,0.22986 0.62231,0.35245c0.20468,0.12258 0.40613,0.25019 0.60433,0.38281c0.19837,0.13246 0.39333,0.26978 0.5849,0.41196c0.19157,0.14202 0.37957,0.28864 0.56401,0.43989c0.18428,0.15141 0.36484,0.30719 0.54167,0.46734c0.17667,0.16015 0.34928,0.32459 0.51786,0.49333c0.16873,0.16857 0.33318,0.34119 0.49333,0.51786c0.16015,0.17683 0.31593,0.35738 0.46734,0.54167c0.15124,0.18444 0.29787,0.37245 0.43989,0.56401c0.14218,0.19157 0.27949,0.38653 0.41196,0.5849c0.13246,0.1982 0.26006,0.39965 0.38281,0.60433c0.12258,0.20452 0.24006,0.41196 0.35245,0.62231c0.11254,0.21035 0.21974,0.42337 0.3216,0.63907c0.10202,0.21553 0.19869,0.43349 0.29002,0.65388c0.09117,0.22039 0.17699,0.44288 0.25747,0.66748c0.08032,0.22444 0.15505,0.45082 0.2242,0.67914c0.06931,0.22816 0.13294,0.45795 0.19092,0.68935c0.05797,0.2314 0.11019,0.46409 0.15667,0.69809c0.04647,0.23383 0.08728,0.46871 0.12242,0.70465c0.03498,0.23593 0.06413,0.4726 0.08744,0.70999c0.02332,0.23739 0.04088,0.47519 0.05271,0.71339c0.01166,0.2382 0.01749,0.47656 0.01749,0.71509z" fill="#b2b4b2"></path></g></g></g></svg>